<?xml version="1.0" encoding="UTF-8"?>
<svg width="47px" height="47px" viewBox="0 0 47 47" version="1.1" xmlns="http://www.w3.org/2000/svg" xmlns:xlink="http://www.w3.org/1999/xlink">
    <!-- Generator: Sketch 52.6 (67491) - http://www.bohemiancoding.com/sketch -->
    <title>key</title>
    <desc>Created with Sketch.</desc>
    <g id="desktop" stroke="none" stroke-width="1" fill="none" fill-rule="evenodd">
        <g id="swipe" transform="translate(-208.000000, -837.000000)">
            <g id="key" transform="translate(204.000000, 833.000000)">
                <g id="Group">
                    <polygon id="Path" points="0 0 55 0 55 55 0 55"></polygon>
                    <path d="M26.4367256,35.6033922 C24.6392162,36.2908659 22.6805986,36.6666667 20.625,36.6666667 C11.6875,36.6666667 4.58333333,29.5625 4.58333333,20.625 C4.58333333,11.6875 11.6875,4.58333333 20.625,4.58333333 C29.5625,4.58333333 36.6666667,11.6875 36.6666667,20.625 C36.6666667,22.6805986 36.2908659,24.6392163 35.6033922,26.4367256 L49.7291667,40.5625 C50.1875,41.0208333 50.4166667,41.4791667 50.4166667,42.1666667 L50.4166667,48.125 C50.4166667,49.5 49.5,50.4166667 48.125,50.4166667 L42.1666667,50.4166667 C41.4791667,50.4166667 41.0208333,50.1875 40.5625,49.7291667 L38.9583333,48.125 L38.9583333,43.5416667 L34.375,43.5416667 L34.375,38.9583333 L29.7916667,38.9583333 L26.4367256,35.6033922 Z M17.1875,22.9166667 C20.3958333,22.9166667 22.9166667,20.3958333 22.9166667,17.1875 C22.9166667,13.9791667 20.3958333,11.4583333 17.1875,11.4583333 C13.9791667,11.4583333 11.4583333,13.9791667 11.4583333,17.1875 C11.4583333,20.3958333 13.9791667,22.9166667 17.1875,22.9166667 Z" id="Shape" fill="#222222" fill-rule="nonzero"></path>
                </g>
            </g>
        </g>
    </g>
</svg>