<?xml version="1.0" encoding="UTF-8"?>
<svg width="139px" height="36px" viewBox="0 0 139 36" version="1.1" xmlns="http://www.w3.org/2000/svg" xmlns:xlink="http://www.w3.org/1999/xlink">
    <!-- Generator: Sketch 52.6 (67491) - http://www.bohemiancoding.com/sketch -->
    <title>Group 6</title>
    <desc>Created with Sketch.</desc>
    <g id="desktop" stroke="none" stroke-width="1" fill="none" fill-rule="evenodd">
        <g id="swipe" transform="translate(-113.000000, -34.000000)">
            <g id="Group-6" transform="translate(114.000000, 35.000000)">
                <g id="Group-10">
                    <g id="Group-5">
                        <circle id="Oval" stroke="#FFFFFF" stroke-width="0.6" fill="#000000" cx="17.5" cy="3.5" r="3.8"></circle>
                        <circle id="Oval-Copy" stroke="#FFFFFF" stroke-width="0.6" fill="#000000" cx="17.5" cy="17.5" r="3.8"></circle>
                        <circle id="Oval-Copy-2" stroke="#FFFFFF" stroke-width="0.6" fill="#000000" cx="17.5" cy="30.5" r="3.8"></circle>
                        <circle id="Oval-Copy-3" stroke="#FFFFFF" stroke-width="0.6" fill="#000000" cx="3.5" cy="24.5" r="3.8"></circle>
                        <circle id="Oval-Copy-5" stroke="#FFFFFF" stroke-width="0.6" fill="#000000" cx="32.5" cy="24.5" r="3.8"></circle>
                        <circle id="Oval-Copy-4" stroke="#FFFFFF" stroke-width="0.6" fill="#000000" cx="3.5" cy="9.5" r="3.8"></circle>
                        <circle id="Oval-Copy-6" stroke="#000000" stroke-width="1.4" cx="32.5" cy="9.5" r="2.8"></circle>
                        <path d="M23.0483871,27.9444444 L25.9516129,26.0555556" id="Line" stroke="#000000" stroke-width="1.5" fill="#FFFFFF" stroke-linecap="round" stroke-linejoin="round"></path>
                        <g id="Group-2" transform="translate(10.500000, 6.000000) scale(1, -1) translate(-10.500000, -6.000000) translate(9.000000, 5.000000)" stroke="#000000" stroke-linecap="round" stroke-linejoin="round" stroke-width="1.5">
                            <path d="M0.0483870968,1.94444444 L2.9516129,0.0555555556" id="Line-Copy-3" transform="translate(1.500000, 1.000000) scale(-1, 1) translate(-1.500000, -1.000000) "></path>
                        </g>
                        <g id="Group-2-Copy" transform="translate(18.000000, 20.000000) scale(1, -1) translate(-18.000000, -20.000000) translate(9.000000, 19.000000)" stroke="#000000" stroke-linecap="round" stroke-linejoin="round" stroke-width="1.5">
                            <path d="M14.8265896,1.94444444 L17.9479769,0.0555555556" id="Line-Copy-2"></path>
                            <path d="M0.0520231214,1.94444444 L3.1734104,0.0555555556" id="Line-Copy-3" transform="translate(1.612717, 1.000000) scale(-1, 1) translate(-1.612717, -1.000000) "></path>
                        </g>
                        <path d="M9.0483871,27.9444444 L11.9516129,26.0555556" id="Line-Copy" stroke="#000000" stroke-width="1.5" fill="#FFFFFF" stroke-linecap="round" stroke-linejoin="round" transform="translate(10.500000, 27.000000) scale(-1, 1) translate(-10.500000, -27.000000) "></path>
                        <path d="M9.0483871,14.9444444 L11.9516129,13.0555556" id="Line-Copy-7" stroke="#000000" stroke-width="1.5" fill="#FFFFFF" stroke-linecap="round" stroke-linejoin="round" transform="translate(10.500000, 14.000000) scale(-1, 1) translate(-10.500000, -14.000000) "></path>
                        <path d="M2.94754536,17.952381 L2.94754536,16.047619" id="Line-Copy-4" stroke="#000000" stroke-width="1.5" fill="#FFFFFF" stroke-linecap="round" stroke-linejoin="round" transform="translate(3.000000, 17.000000) scale(-1, 1) translate(-3.000000, -17.000000) "></path>
                    </g>
                    <text id="Coliberate" font-family="NunitoSans-Bold, Nunito Sans" font-size="22" font-weight="bold" letter-spacing="-0.8749999" fill="#000000">
                        <tspan x="43" y="25">Coliberate</tspan>
                    </text>
                </g>
            </g>
        </g>
    </g>
</svg>