<?xml version="1.0" encoding="UTF-8"?>
<svg width="55px" height="55px" viewBox="0 0 55 55" version="1.1" xmlns="http://www.w3.org/2000/svg" xmlns:xlink="http://www.w3.org/1999/xlink">
    <!-- Generator: Sketch 52.6 (67491) - http://www.bohemiancoding.com/sketch -->
    <title>rfid</title>
    <desc>Created with Sketch.</desc>
    <g id="desktop" stroke="none" stroke-width="1" fill="none" fill-rule="evenodd">
        <g id="swipe" transform="translate(-481.000000, -836.000000)" fill="#4A4A4A" fill-rule="nonzero">
            <g id="rfid" transform="translate(481.000000, 836.000000)">
                <path d="M52.7083333,0 L18.3115625,0 C17.7002604,0 17.1244792,0.238333333 16.6907813,0.671458333 L0.670885417,16.6913542 C0.238333333,17.1244792 0,17.7002604 0,18.3115625 L0,52.7083333 C0,53.9721875 1.0278125,55 2.29166667,55 L52.7083333,55 C53.9721875,55 55,53.9721875 55,52.7083333 L55,2.29166667 C55,1.0278125 53.9721875,0 52.7083333,0 Z M2.29166667,52.7083333 L2.29166667,18.3109896 L18.3115625,2.29166667 L52.7083333,2.29166667 L52.7100521,52.7083333 L2.29166667,52.7083333 Z" id="Shape"></path>
                <path d="M33.6666667,22.1666667 L24.3333333,22.1666667 C23.68875,22.1666667 23.1666667,22.68875 23.1666667,23.3333333 L23.1666667,32.6666667 C23.1666667,33.31125 23.68875,33.8333333 24.3333333,33.8333333 L33.6666667,33.8333333 C34.31125,33.8333333 34.8333333,33.31125 34.8333333,32.6666667 L34.8333333,29.1666667 L38.6666667,29.1666667 C39.9535,29.1666667 41,28.1201667 41,26.8333333 L41,16.3333333 C41,15.0465 39.9535,14 38.6666667,14 L25.15025,14 C24.52725,14 23.941,14.2426667 23.5,14.6836667 L13.6836667,24.5 C13.2426667,24.9404167 13,25.5266667 13,26.15025 L13,39.6666667 C13,40.9535 14.0465,42 15.3333333,42 L45.6666667,42 C46.9535,42 48,40.9535 48,39.6666667 L48,9.33333333 C48,8.0465 46.9535,7 45.6666667,7 L21.65025,7 C21.02725,7 20.441,7.24266667 20,7.68366667 L6.68366667,21 C6.24266667,21.4404167 6,22.0266667 6,22.65025 L6,46.6666667 C6,47.9535 7.0465,49 8.33333333,49 L45.8333333,49 C46.4773333,49 47,48.4773333 47,47.8333333 C47,47.1893333 46.4773333,46.6666667 45.8333333,46.6666667 L8.33333333,46.6666667 L8.33333333,22.6496667 L21.65025,9.33333333 L45.6666667,9.33333333 L45.6666667,39.6666667 L15.3333333,39.6666667 L15.3333333,26.1496667 L25.15025,16.3333333 L38.6666667,16.3333333 L38.6666667,26.8333333 L34.8333333,26.8333333 L34.8333333,23.3333333 C34.8333333,22.68875 34.31125,22.1666667 33.6666667,22.1666667 Z M32.5,31.5 L25.5,31.5 L25.5,24.5 L32.5,24.5 L32.5,31.5 Z" id="Shape"></path>
            </g>
        </g>
    </g>
</svg>