<?xml version="1.0" encoding="UTF-8"?>
<svg width="63px" height="64px" viewBox="0 0 63 64" version="1.1" xmlns="http://www.w3.org/2000/svg" xmlns:xlink="http://www.w3.org/1999/xlink">
    <!-- Generator: Sketch 52.6 (67491) - http://www.bohemiancoding.com/sketch -->
    <title>schedule</title>
    <desc>Created with Sketch.</desc>
    <g id="desktop" stroke="none" stroke-width="1" fill="none" fill-rule="evenodd">
        <g id="swipe" transform="translate(-338.000000, -1019.000000)" fill="#4A4A4A">
            <g id="schedule" transform="translate(338.000000, 1019.000000)">
                <path d="M5.51773836,56.8269806 L29.0554324,56.8269806 C32.6913061,61.3054111 38.0818596,63.929092 43.7926829,63.9998697 C48.8682664,64.0187395 53.7433356,61.9866626 57.3454136,58.3506799 C60.9474917,54.7146972 62.9815098,49.7726549 63,44.6117634 C62.8926393,38.1332639 59.7201769,32.1047504 54.4789357,28.4194988 L54.4789357,10.3097292 C54.4789357,7.18490616 51.7549889,4.98332632 48.6818182,4.98332632 L44.0022173,4.98332632 L44.0022173,1.14831628 C44.0506309,0.834417782 43.9485844,0.515896638 43.7276255,0.291223989 C43.5066666,0.0665513398 43.1934105,-0.037210329 42.8847007,0.0120170091 L36.2494457,0.0120170091 C35.481153,0.0120170091 34.9223947,0.367110532 34.9223947,1.14831628 L34.9223947,4.98332632 L19.556541,4.98332632 L19.556541,1.14831628 C19.556541,0.367110532 18.6485588,0.0120170091 17.8802661,0.0120170091 L11.2450111,0.0120170091 C10.4767184,0.0120170091 9.77827051,0.367110532 9.77827051,1.14831628 L9.77827051,4.98332632 L5.51773836,4.98332632 C2.44456763,4.98332632 0,7.18490616 0,10.3097292 L0,51.5005778 C0,54.6254008 2.44456763,56.8269806 5.51773836,56.8269806 Z M60.1363636,44.7538008 C60.0978284,53.92253 52.7635376,61.3271858 43.7463186,61.3010917 C34.7290997,61.2749976 27.4363777,53.8280139 27.4491679,44.6592103 C27.4619581,35.4904067 34.7754275,28.064489 43.7926829,28.0644053 C48.1394251,28.0643649 52.3071241,29.8249701 55.3741745,32.9568972 C58.4412249,36.0888243 60.1549395,40.3340412 60.1363636,44.7538008 Z M43.9323725,25.2236571 C38.8632462,25.1858614 33.9879708,27.2020865 30.383856,30.826799 C26.7797411,34.4515115 24.7434879,39.3863147 24.7250554,44.5407447 C24.6981844,47.8544081 25.542116,51.115249 27.1696231,53.9862324 L5.51773836,53.9862324 C3.98115299,53.9862324 2.79379157,53.0629893 2.79379157,51.5005778 L2.79379157,22.0278154 L51.6851441,22.0278154 L51.6851441,26.928106 C49.2311798,25.8632458 46.5997838,25.2847327 43.9323725,25.2236571 Z M37.7161863,2.85276519 L41.2084257,2.85276519 L41.2084257,9.24444859 L37.7161863,9.24444859 L37.7161863,2.85276519 Z M12.5720621,2.85276519 L16.7627494,2.85276519 L16.7627494,9.24444859 L12.5720621,9.24444859 L12.5720621,2.85276519 Z M5.51773836,7.8240745 L9.77827051,7.8240745 L9.77827051,10.5227853 C9.81044067,11.3448616 10.4388929,12.0143058 11.2450111,12.0851968 L17.8802661,12.0851968 C18.7302502,12.0285972 19.4273148,11.3788817 19.556541,10.5227853 L19.556541,7.8240745 L34.9223947,7.8240745 L34.9223947,10.5227853 C34.881488,11.3210407 35.4667922,12.0101522 36.2494457,12.0851968 L42.8847007,12.0851968 C43.6529933,12.0851968 44.0022173,11.303991 44.0022173,10.5227853 L44.0022173,7.8240745 L48.6818182,7.8240745 C50.2184035,7.8240745 51.6851441,8.74731766 51.6851441,10.3097292 L51.6851441,19.1870672 L2.79379157,19.1870672 L2.79379157,10.3097292 C2.79379157,8.74731766 3.98115299,7.8240745 5.51773836,7.8240745 Z" id="Shape" fill-rule="nonzero"></path>
                <path d="M41,35.4444254 L41,45.5554031 C41.1436574,46.3984911 41.8859794,47.0117735 42.7483444,46.9998285 L50.5430464,46.9998285 C51.3476996,46.9998285 52,46.3531372 52,45.5554031 C52,44.757669 51.3476996,44.1109777 50.5430464,44.1109777 L43.9139073,44.1109777 L43.9139073,35.4444254 C43.9139073,34.6466913 43.2616069,34 42.4569536,34 C41.6523004,34 41,34.6466913 41,35.4444254 Z" id="Path"></path>
            </g>
        </g>
    </g>
</svg>