<?xml version="1.0" encoding="UTF-8"?>
<svg width="46px" height="51px" viewBox="0 0 46 51" version="1.1" xmlns="http://www.w3.org/2000/svg" xmlns:xlink="http://www.w3.org/1999/xlink">
    <!-- Generator: Sketch 52.6 (67491) - http://www.bohemiancoding.com/sketch -->
    <title>settings</title>
    <desc>Created with Sketch.</desc>
    <g id="desktop" stroke="none" stroke-width="1" fill="none" fill-rule="evenodd">
        <g id="swipe" transform="translate(-625.000000, -1021.000000)" fill="#4A4A4A" fill-rule="nonzero">
            <g id="settings" transform="translate(625.000000, 1021.000000)">
                <path d="M45.9984379,25.4512411 C45.9972485,25.8795923 45.852438,26.2165269 45.6156942,26.4590081 C45.3809701,26.6994206 45.0572589,26.8470149 44.705767,26.8470149 L39.2019203,26.8470149 C38.8668771,28.7415769 37.8490909,30.390954 36.4246479,31.5052808 C35.2267403,32.4423913 33.7401576,33 32.1335844,33 C30.5270113,33 29.0404286,32.4423913 27.842521,31.5052808 C26.418078,30.390954 25.4002918,28.7415769 25.0652486,26.8470149 L1.29148154,26.8470149 C0.933068563,26.8470149 0.616908194,26.7000657 0.388624543,26.4662496 C0.145269206,26.2169967 0,25.8720934 0,25.5 C0,25.1204077 0.144810518,24.7834731 0.381554319,24.5409919 C0.616278416,24.3005794 0.939989603,24.1529851 1.29148154,24.1529851 L25.0468507,24.1529851 C25.4243111,22.2839355 26.4748197,20.6219618 27.9261886,19.4954414 C29.1255878,18.5644943 30.6009909,18 32.1955164,18 C33.8020895,18 35.2886723,18.5576087 36.4865798,19.4947192 C37.9110228,20.609046 38.928809,22.2584231 39.2638523,24.1529851 L44.7676989,24.1529851 C45.1235517,24.1529851 45.438581,24.2975121 45.6605017,24.5311248 C45.8866709,24.76921 46.0157173,25.0972792 45.9984379,25.4512411 Z M27.4796004,25.5 C27.4796004,26.8393552 28.0116574,28.0224921 28.8480803,28.8791856 C29.7179173,29.7701028 30.9173665,30.3059701 32.1955164,30.3059701 C33.4736663,30.3059701 34.6731154,29.7701028 35.5429524,28.8791856 C36.3793754,28.0224921 36.9114324,26.8393552 36.9114324,25.5 C36.9114324,24.1412427 36.3959085,22.9472273 35.5586277,22.0896552 C34.7129331,21.2234654 33.5345231,20.6940299 32.1955164,20.6940299 C30.8565097,20.6940299 29.6780997,21.2234654 28.832405,22.0896552 C27.9951242,22.9472273 27.4796004,24.1412427 27.4796004,25.5 Z" id="Shape"></path>
                <path d="M1.28865979,8.84701493 C0.92594192,8.84701493 0.603125508,8.71071188 0.373167804,8.47489083 C0.134378545,8.23001304 0,7.88535857 0,7.5 C0,7.12025784 0.144603325,6.78314379 0.381164285,6.54055111 C0.615261099,6.30048541 0.93807343,6.15298507 1.28865979,6.15298507 L6.9725084,6.15298507 C7.30710692,4.2583088 8.32359617,2.6087502 9.74637814,1.49435052 C10.9424673,0.557508903 12.4267787,0 14.0309278,0 C15.635077,0 17.1193884,0.557508903 18.3154775,1.49435052 C19.7382595,2.6087502 20.7547487,4.2583088 21.0893473,6.15298507 L44.7113402,6.15298507 C45.0740581,6.15298507 45.3968745,6.28928812 45.6268322,6.52510917 C45.8656215,6.76998696 46,7.11464143 46,7.5 C46,7.87974216 45.8553967,8.21685621 45.6188357,8.45944889 C45.3847389,8.69951459 45.0619266,8.84701493 44.7113402,8.84701493 L21.0893473,8.84701493 C20.7547487,10.7416912 19.7382595,12.3912498 18.3154775,13.5056495 C17.1193884,14.4424911 15.635077,15 14.0309278,15 C12.4267787,15 10.9424673,14.4424911 9.74637814,13.5056495 C8.32359617,12.3912498 7.30710692,10.7416912 6.9725084,8.84701493 L1.28865979,8.84701493 Z M18.742268,7.5 C18.742268,6.16079318 18.2108371,4.97783692 17.375553,4.12125524 C16.5064464,3.22998858 15.30797,2.69402985 14.0309278,2.69402985 C12.7719434,2.69402985 11.5849618,3.24761736 10.7170384,4.13767068 C9.85832342,5.01828074 9.31958763,6.22114992 9.31958763,7.5 C9.31958763,8.79708133 9.84106076,10.0119513 10.7010311,10.8938488 C11.5452288,11.7595714 12.7122855,12.3059701 14.0309278,12.3059701 C15.3687808,12.3059701 16.546226,11.7764319 17.391209,10.9099039 C18.2273507,10.0524427 18.742268,8.8586036 18.742268,7.5 Z" id="Shape"></path>
                <path d="M46,43.5 C46,43.8797422 45.8553967,44.2168562 45.6188357,44.4594489 C45.3847389,44.6995146 45.0619266,44.8470149 44.7113402,44.8470149 L21.0893473,44.8470149 C20.7547487,46.7416912 19.7382595,48.3912498 18.3154775,49.5056495 C17.1193884,50.4424911 15.635077,51 14.0309278,51 C12.4267787,51 10.9424673,50.4424911 9.74637814,49.5056495 C8.32359617,48.3912498 7.30710692,46.7416912 6.9725084,44.8470149 L1.28865979,44.8470149 C0.92594192,44.8470149 0.603125508,44.7107119 0.373167804,44.4748908 C0.134378545,44.230013 0,43.8853586 0,43.5 C0,43.1202578 0.144603325,42.7831438 0.381164285,42.5405511 C0.615261099,42.3004854 0.93807343,42.1529851 1.28865979,42.1529851 L6.9725084,42.1529851 C7.30710692,40.2583088 8.32359617,38.6087502 9.74637814,37.4943505 C10.9424673,36.5575089 12.4267787,36 14.0309278,36 C15.635077,36 17.1193884,36.5575089 18.3154775,37.4943505 C19.7382595,38.6087502 20.7547487,40.2583088 21.0893473,42.1529851 L44.7113402,42.1529851 C45.0740581,42.1529851 45.3968745,42.2892881 45.6268322,42.5251092 C45.8656215,42.769987 46,43.1146414 46,43.5 Z M9.31958763,43.5 C9.31958763,44.8392068 9.85101862,46.0221631 10.6863026,46.8787448 C11.5554092,47.7700114 12.7538857,48.3059701 14.0309278,48.3059701 C15.30797,48.3059701 16.5064464,47.7700114 17.375553,46.8787448 C18.2108371,46.0221631 18.742268,44.8392068 18.742268,43.5 C18.742268,42.1413964 18.2273507,40.9475573 17.391209,40.0900961 C16.546226,39.2235681 15.3687808,38.6940299 14.0309278,38.6940299 C12.6930749,38.6940299 11.5156296,39.2235681 10.6706466,40.0900961 C9.83450494,40.9475573 9.31958763,42.1413964 9.31958763,43.5 Z" id="Shape"></path>
            </g>
        </g>
    </g>
</svg>